<svg id="svg" xmlns="http://www.w3.org/2000/svg" xmlns:xlink="http://www.w3.org/1999/xlink" width="400" height="133.33333333333334" viewBox="0, 0, 400,133.33333333333334"><g id="svgg"><path id="path0" d="M31.189 44.611 C 22.994 45.247,18.744 49.242,16.849 58.088 C 15.577 64.026,16.430 65.995,22.365 70.831 C 26.943 74.562,27.396 75.110,27.376 76.900 C 27.327 81.431,24.834 85.112,22.910 83.493 L 22.518 83.163 22.586 82.114 C 22.631 81.422,22.927 79.970,23.459 77.839 C 23.902 76.063,24.265 74.561,24.265 74.499 C 24.265 74.433,21.970 74.387,18.693 74.387 L 13.122 74.387 12.999 74.847 C 11.189 81.580,10.939 85.231,12.146 87.339 C 15.882 93.871,31.563 92.809,36.100 85.717 C 38.145 82.520,39.942 74.905,39.464 71.459 C 39.047 68.452,37.248 66.376,31.169 61.887 C 28.800 60.138,28.379 59.554,28.390 58.036 C 28.414 54.616,30.413 51.636,32.097 52.507 C 32.794 52.867,32.762 53.831,31.946 57.138 L 31.409 59.314 37.018 59.314 L 42.627 59.314 43.057 57.506 C 44.093 53.157,44.270 50.257,43.585 48.859 C 42.103 45.840,37.163 44.147,31.189 44.611 M209.342 66.146 C 206.510 77.520,204.016 87.598,203.801 88.542 C 203.586 89.485,203.383 90.354,203.351 90.472 C 203.281 90.727,220.035 90.802,222.609 90.558 C 227.391 90.105,230.326 88.119,231.847 84.308 C 232.935 81.581,238.400 60.205,239.332 55.031 C 240.051 51.034,239.172 48.386,236.675 47.027 C 234.396 45.788,231.055 45.470,220.266 45.467 L 214.491 45.466 209.342 66.146 M298.545 48.466 C 298.132 50.117,297.794 51.495,297.794 51.530 C 297.794 51.565,300.467 51.593,303.733 51.593 L 309.672 51.593 309.793 51.134 C 310.174 49.687,311.152 45.700,311.152 45.593 C 311.152 45.507,309.233 45.466,305.224 45.466 L 299.295 45.466 298.545 48.466 M137.755 48.879 C 137.688 49.004,137.575 49.459,137.503 49.890 C 137.432 50.321,137.164 51.501,136.909 52.512 L 136.444 54.350 135.226 54.412 L 134.007 54.473 133.307 57.292 C 132.411 60.897,132.361 60.523,133.744 60.565 L 134.891 60.600 132.279 71.078 C 128.576 85.933,128.473 86.491,129.179 87.996 C 130.253 90.285,131.184 90.578,137.635 90.653 L 142.366 90.708 143.119 87.696 C 143.534 86.040,143.873 84.664,143.873 84.639 C 143.873 84.614,143.302 84.565,142.604 84.529 C 140.838 84.439,140.756 84.383,140.854 83.323 C 140.897 82.859,142.162 77.557,143.665 71.540 L 146.398 60.600 147.916 60.539 L 149.434 60.478 150.142 57.659 C 150.532 56.109,150.852 54.746,150.854 54.630 C 150.857 54.444,150.685 54.415,149.407 54.385 L 147.957 54.350 148.605 51.716 C 148.962 50.267,149.256 48.984,149.259 48.866 C 149.268 48.523,137.938 48.536,137.755 48.879 M57.589 53.120 C 51.982 54.039,48.448 56.551,46.272 61.164 C 44.551 64.812,40.809 79.900,40.809 83.191 C 40.809 89.099,46.058 92.292,54.061 91.252 C 60.254 90.448,65.218 86.382,66.724 80.880 C 67.444 78.249,68.135 75.538,68.136 75.337 C 68.137 75.136,67.800 75.123,62.750 75.123 L 57.362 75.123 57.243 75.582 C 57.177 75.835,56.837 77.172,56.488 78.554 C 55.530 82.350,54.980 83.749,54.260 84.220 C 53.692 84.592,52.996 84.708,52.521 84.509 C 51.669 84.153,51.732 83.529,53.217 77.574 L 54.363 72.978 61.579 72.917 L 68.796 72.855 69.199 71.262 C 71.594 61.785,71.563 58.612,69.049 55.895 C 66.889 53.563,62.045 52.390,57.589 53.120 M93.750 53.124 C 92.012 53.472,90.436 54.241,88.819 55.529 C 87.750 56.382,87.799 56.426,88.239 55.019 C 88.437 54.382,88.601 53.791,88.602 53.706 C 88.603 53.583,87.392 53.558,82.751 53.583 L 76.900 53.615 73.863 65.870 C 72.193 72.610,69.854 82.068,68.666 86.887 C 67.478 91.706,66.481 95.718,66.451 95.803 C 66.407 95.924,67.596 95.956,72.138 95.955 L 77.880 95.955 78.848 92.126 C 79.381 90.020,79.852 88.227,79.896 88.142 C 79.946 88.044,80.164 88.256,80.495 88.725 C 83.730 93.312,91.813 91.825,94.458 86.155 C 95.676 83.545,100.970 62.975,101.468 58.918 C 101.984 54.711,98.581 52.156,93.750 53.124 M163.480 53.024 C 158.585 53.519,154.042 56.088,152.054 59.485 C 150.821 61.592,148.846 67.875,149.355 68.070 C 149.451 68.107,151.870 68.137,154.731 68.137 L 159.932 68.137 160.050 67.862 C 160.114 67.710,160.446 66.455,160.787 65.074 C 161.995 60.173,162.416 59.454,163.919 59.736 C 164.938 59.928,164.929 61.755,163.891 65.196 C 163.147 67.662,163.200 67.628,155.576 70.448 C 148.190 73.179,147.572 73.914,145.603 82.292 C 144.465 87.134,144.985 89.290,147.599 90.564 C 150.901 92.172,154.853 91.504,157.763 88.844 C 158.144 88.496,158.455 88.230,158.453 88.254 C 158.452 88.277,158.319 88.810,158.158 89.438 C 157.948 90.257,157.905 90.595,158.007 90.634 C 158.085 90.664,160.628 90.675,163.657 90.657 L 169.164 90.625 171.587 80.882 C 176.603 60.703,176.800 59.514,175.533 56.982 C 174.006 53.930,169.418 52.423,163.480 53.024 M199.142 53.020 C 197.015 53.367,195.024 54.493,193.207 56.377 C 192.609 56.998,192.159 57.403,192.209 57.277 C 192.658 56.127,193.377 53.839,193.328 53.713 C 193.280 53.586,192.121 53.554,187.580 53.554 L 181.893 53.554 177.282 71.997 C 174.746 82.141,172.672 90.496,172.672 90.563 C 172.672 90.644,174.662 90.686,178.427 90.686 L 184.182 90.686 184.303 90.227 C 184.369 89.974,185.364 86.009,186.512 81.416 C 189.351 70.064,189.699 68.985,190.864 67.910 C 192.030 66.836,193.374 66.337,195.437 66.214 C 196.129 66.173,196.770 66.079,196.861 66.005 C 197.031 65.867,199.968 54.205,200.028 53.431 C 200.064 52.972,199.901 52.896,199.142 53.020 M253.248 53.114 C 246.826 54.062,243.005 57.304,240.813 63.664 C 240.199 65.445,236.875 78.686,236.568 80.576 C 235.475 87.300,238.425 90.758,245.738 91.322 C 254.229 91.976,260.429 87.730,262.683 79.718 C 263.089 78.276,263.848 75.326,263.848 75.191 C 263.848 75.153,261.377 75.123,258.356 75.123 L 252.863 75.123 252.273 77.604 C 250.919 83.298,250.228 84.599,248.562 84.600 C 247.176 84.600,247.197 83.903,248.781 77.543 L 249.933 72.917 257.138 72.917 L 264.343 72.917 264.464 72.641 C 265.210 70.926,266.580 63.818,266.594 61.581 C 266.635 55.346,261.253 51.932,253.248 53.114 M322.426 53.128 C 316.858 53.974,312.599 57.099,310.800 61.659 C 309.722 64.391,306.478 77.030,305.943 80.581 C 304.925 87.341,307.323 90.662,313.692 91.316 C 322.090 92.177,328.599 88.088,331.109 80.372 C 331.550 79.017,332.474 75.694,332.475 75.460 C 332.475 75.409,330.161 75.368,327.333 75.368 L 322.191 75.368 322.071 75.827 C 322.005 76.080,321.666 77.417,321.317 78.799 C 320.060 83.780,319.127 85.210,317.627 84.455 C 316.530 83.902,316.577 83.592,319.587 71.548 C 322.498 59.898,322.577 59.683,323.995 59.682 C 325.224 59.680,325.268 60.700,324.222 64.888 C 323.729 66.861,323.587 67.608,323.692 67.677 C 323.771 67.728,326.192 67.766,329.072 67.761 L 334.309 67.752 334.447 67.240 C 335.280 64.144,335.591 60.361,335.151 58.648 C 334.094 54.526,328.680 52.177,322.426 53.128 M350.597 53.130 C 344.941 54.011,341.269 56.652,339.027 61.450 C 338.455 62.673,337.500 65.397,337.500 65.804 C 337.500 65.939,336.761 69.014,335.857 72.638 C 333.957 80.260,333.782 81.145,333.780 83.150 C 333.772 88.204,336.712 90.796,343.045 91.321 C 350.931 91.974,357.202 88.117,359.549 81.171 C 359.945 79.999,361.152 75.501,361.152 75.197 C 361.152 75.156,358.684 75.123,355.668 75.125 L 350.184 75.127 349.404 78.294 C 348.102 83.575,347.529 84.599,345.871 84.600 C 344.423 84.600,344.434 84.250,346.108 77.482 L 347.236 72.917 354.488 72.917 L 361.739 72.917 362.608 69.393 C 364.429 62.019,364.416 59.149,362.550 56.534 C 360.548 53.729,355.670 52.339,350.597 53.130 M377.941 53.117 C 371.191 54.189,368.176 56.975,366.531 63.664 C 365.130 69.359,366.004 71.134,372.283 75.354 C 373.903 76.442,375.535 77.583,375.910 77.889 L 376.593 78.445 376.592 79.327 C 376.591 80.700,376.015 82.853,375.418 83.715 C 374.660 84.812,372.732 84.903,372.469 83.855 C 372.332 83.308,372.992 79.776,373.603 77.787 C 373.666 77.583,373.386 77.573,368.486 77.603 L 363.302 77.635 362.903 79.350 C 361.927 83.552,361.888 85.821,362.762 87.534 C 364.995 91.911,376.025 92.778,381.857 89.035 C 384.718 87.199,386.596 83.909,387.602 78.973 C 388.625 73.950,387.544 72.055,381.801 68.809 C 377.314 66.271,376.671 65.404,377.283 62.711 C 377.740 60.705,378.558 59.681,379.706 59.681 C 381.063 59.681,381.142 60.179,380.324 63.586 C 380.092 64.554,379.902 65.395,379.902 65.455 C 379.902 65.517,382.130 65.564,385.027 65.564 L 390.152 65.564 390.609 63.572 C 391.384 60.198,391.473 59.538,391.292 58.538 C 390.829 55.987,388.564 54.059,385.191 53.348 C 383.402 52.970,379.625 52.850,377.941 53.117 M226.614 53.758 C 227.645 54.359,227.697 54.049,224.259 67.788 C 221.080 80.494,220.739 81.569,219.679 82.224 C 219.301 82.458,217.898 82.836,217.387 82.841 C 217.222 82.843,217.831 80.267,220.868 68.122 L 224.548 53.401 225.377 53.460 C 225.881 53.497,226.366 53.613,226.614 53.758 M106.188 53.707 C 106.063 54.059,99.491 80.500,99.068 82.353 C 98.292 85.749,98.411 87.928,99.450 89.359 C 101.613 92.337,108.164 92.003,111.552 88.742 L 112.136 88.180 111.949 88.808 C 111.846 89.154,111.680 89.669,111.580 89.954 C 111.479 90.239,111.397 90.520,111.397 90.579 C 111.397 90.639,113.997 90.686,117.264 90.686 L 123.131 90.686 127.744 72.234 C 130.281 62.086,132.325 53.731,132.287 53.668 C 132.245 53.600,129.915 53.554,126.529 53.554 L 120.843 53.554 120.721 54.013 C 120.655 54.266,119.079 60.558,117.220 67.996 C 113.499 82.882,113.295 83.616,112.733 84.166 C 112.077 84.807,110.795 84.802,110.550 84.158 C 110.316 83.544,110.552 82.510,114.701 65.936 C 116.379 59.233,117.725 53.704,117.692 53.651 C 117.584 53.476,106.250 53.532,106.188 53.707 M270.218 53.646 C 270.217 53.696,270.164 54.234,270.100 54.841 C 270.037 55.447,269.512 60.824,268.935 66.789 C 268.357 72.754,267.611 80.440,267.276 83.868 C 266.941 87.297,266.667 90.233,266.667 90.394 L 266.667 90.686 274.068 90.686 L 281.469 90.686 281.801 89.859 C 281.983 89.404,284.852 82.083,288.175 73.591 C 291.499 65.098,294.609 57.157,295.086 55.944 C 295.564 54.730,295.955 53.696,295.955 53.646 C 295.956 53.595,293.637 53.554,290.803 53.554 L 285.649 53.554 285.454 54.013 C 285.347 54.266,283.451 59.905,281.241 66.544 C 279.031 73.183,277.219 78.516,277.215 78.395 C 277.210 78.274,277.923 72.803,278.799 66.238 C 279.675 59.672,280.392 54.132,280.392 53.927 L 280.392 53.554 275.306 53.554 C 272.509 53.554,270.220 53.595,270.218 53.646 M297.243 53.706 C 297.027 54.317,288.037 90.569,288.088 90.621 C 288.124 90.657,290.805 90.686,294.046 90.686 L 299.939 90.685 304.518 72.273 C 307.037 62.146,309.105 53.805,309.114 53.738 C 309.140 53.540,297.312 53.508,297.243 53.706 M59.762 59.862 C 60.318 60.252,60.098 61.978,58.937 66.330 L 58.814 66.789 57.359 66.789 L 55.905 66.789 56.431 64.737 C 57.409 60.922,57.651 60.285,58.262 59.913 C 58.714 59.637,59.407 59.613,59.762 59.862 M89.338 59.926 C 89.781 60.369,89.627 61.123,86.753 72.549 C 83.840 84.131,83.797 84.263,82.760 84.549 C 81.808 84.812,81.250 84.416,81.250 83.479 C 81.250 81.741,86.385 61.542,87.107 60.440 C 87.586 59.710,88.834 59.423,89.338 59.926 M255.392 59.926 C 255.830 60.364,255.689 61.574,254.773 65.227 L 254.381 66.789 252.918 66.789 C 251.581 66.789,251.460 66.771,251.518 66.575 C 251.553 66.457,251.778 65.577,252.017 64.621 C 252.507 62.656,253.007 61.011,253.267 60.503 C 253.653 59.753,254.884 59.418,255.392 59.926 M352.696 59.926 C 353.137 60.367,353.040 61.228,352.131 64.982 L 351.693 66.789 350.225 66.789 C 348.885 66.789,348.764 66.771,348.822 66.575 C 348.857 66.457,349.082 65.577,349.320 64.621 C 349.811 62.656,350.311 61.011,350.571 60.503 C 350.957 59.753,352.188 59.418,352.696 59.926 M160.830 77.604 C 159.118 84.330,158.849 84.873,157.356 84.621 C 156.332 84.448,156.212 83.679,156.802 81.067 C 157.504 77.957,158.318 76.192,159.517 75.184 C 160.206 74.604,161.668 73.541,161.785 73.534 C 161.830 73.532,161.401 75.363,160.830 77.604 M7.380 97.702 L 7.414 99.203 201.563 99.234 L 395.711 99.265 395.711 97.733 L 395.711 96.201 201.528 96.201 L 7.345 96.201 7.380 97.702 " stroke="none" fill="#0B57CF" fill-rule="evenodd"></path></g></svg>