<?xml version="1.0" encoding="utf-8"?>
<svg xmlns="http://www.w3.org/2000/svg" xmlns:xlink="http://www.w3.org/1999/xlink" version= "1.1" width="1500px" height="500px" viewBox="-210 838 1500 500">
<g id="layer1">
<g>
<g style="fill:rgb(27,46,126); fill-opacity:1.0; stroke-linejoin: miter">
<path d="M913.7948,1009.63226Q913.7671,1009.6322,913.73914,1009.6321L906.93353,1009.63116Q903.0446,1009.6307,901.3778,1011.1582Q899.8498,1012.547,899.84937,1015.8803L899.8483,1023.9358Q899.8479,1027.2693,901.51434,1028.7971Q903.0327,1030.3158,906.8845,1030.3254Q906.9077,1030.3256,906.9309,1030.3256L913.7365,1030.3265Q917.76416,1030.3271,919.43097,1028.7993Q920.959,1027.2719,920.9594,1023.9386L920.9603,1015.8829Q920.9609,1012.54956,919.29443,1011.02167Q917.7775,1009.6422,913.7948,1009.63226 Z M1110.6232,1050.6294Q1115.2788,1050.641,1117.2059,1051.8802Q1119.0111,1053.1304,1119.0106,1056.8804L1119.0094,1066.6025L1062.3428,1066.5953L1062.3433,1062.5675Q1062.3439,1058.54,1063.0386,1056.179Q1063.7334,1053.8179,1065.4003,1052.5679Q1066.9282,1051.3184,1069.5671,1050.9019Q1072.206,1050.6245,1076.0948,1050.625L1110.5393,1050.6294Q1110.5814,1050.6293,1110.6232,1050.6294 Z M725.6247,1050.5806Q730.2795,1050.5923,732.20605,1051.8313Q734.0115,1053.0814,734.011,1056.8314L734.0097,1066.5535L677.3431,1066.5464L677.3435,1062.5188Q677.344,1058.4908,678.03894,1056.13Q678.7337,1053.7689,680.4005,1052.5192Q681.9284,1051.2693,684.56744,1050.8531Q687.20624,1050.5756,691.09515,1050.576L725.53955,1050.5804Q725.5822,1050.5804,725.6247,1050.5806 Z M22.986181,1050.4911Q27.640871,1050.5028,29.567549,1051.7417Q31.372936,1052.992,31.372467,1056.7421L31.371223,1066.4642L-25.295414,1066.4573L-25.294878,1062.4293Q-25.294401,1058.4015,-24.599663,1056.0404Q-23.904898,1053.6796,-22.23808,1052.4298Q-20.710142,1051.1799,-18.071213,1050.7637Q-15.432278,1050.4861,-11.543384,1050.4868L22.901052,1050.4908Q22.943731,1050.491,22.986181,1050.4911 Z M604.55664,1033.3428Q609.1938,1033.3545,612.20844,1034.177Q615.26385,1034.8718,617.2081,1036.6777Q619.0134,1038.3447,619.8463,1041.4003Q620.5404,1044.3169,620.53986,1048.6227L620.5362,1076.6781Q620.53564,1081.1224,619.5631,1084.0388Q618.72943,1086.9554,616.78485,1088.7609Q614.8401,1090.4272,611.78436,1091.1212Q608.7288,1091.8152,604.4232,1091.815L551.36774,1091.808L551.3752,1033.336L604.43066,1033.3428Q604.49384,1033.3427,604.55664,1033.3428 Z M126.760284,1052.1711Q132.01166,1052.1843,135.5396,1052.7275Q139.01178,1053.2837,141.09486,1054.9506Q143.17798,1056.6172,144.01093,1059.6731Q144.70499,1062.7285,144.70435,1067.7285L144.70323,1076.6176Q144.70258,1081.7565,143.86885,1084.8116Q143.17401,1087.8671,141.09047,1089.5337Q139.00696,1091.2002,135.5346,1091.7551Q132.06233,1092.1715,126.64567,1092.1709L87.20127,1092.1656L87.204384,1067.5824Q87.20499,1062.999,87.89979,1059.9435Q88.5946,1057.027,90.40041,1055.2218Q92.20621,1053.5554,95.40071,1052.8612Q98.59523,1052.1674,103.45635,1052.1678L126.511894,1052.1708Q126.636566,1052.1708,126.760284,1052.1711 Z M432.75873,1075.8208L432.7579,1082.2097Q432.75742,1086.3761,431.92368,1089.0151Q431.09003,1091.6537,429.42316,1093.1815Q427.7563,1094.57,425.11734,1095.1254Q422.47836,1095.6805,418.86725,1095.6802L379.97845,1095.6753Q379.95306,1095.6753,379.92773,1095.6752Q375.93665,1095.6652,373.72864,1094.1467Q371.50662,1092.6187,371.50714,1088.5908L371.50775,1083.452Q371.50836,1079.0076,373.5919,1077.3412Q375.67545,1075.8137,379.28653,1075.814L432.75873,1075.8208 Z M1202.7634,1034.6688L1174.1523,1034.6652Q1168.0414,1034.6646,1164.0134,1035.6361Q1159.9856,1036.6079,1157.6241,1038.8298Q1155.2627,1040.9127,1154.1512,1044.3851Q1153.1786,1047.8569,1153.1779,1052.718L1153.1771,1058.4124Q1153.1764,1063.4126,1154.0092,1067.1625Q1154.7032,1070.7739,1156.9252,1073.274Q1159.1471,1075.7743,1163.1747,1077.0249Q1167.0161,1078.2601,1173.2974,1078.2759Q1173.3746,1078.2761,1173.4523,1078.2762L1215.6743,1078.2816Q1215.7045,1078.2817,1215.7345,1078.2817Q1219.4376,1078.291,1221.091,1079.3933Q1222.6187,1080.3657,1222.618,1084.5325L1222.6179,1087.0323Q1222.6173,1090.9213,1220.9503,1092.3099Q1219.2834,1093.6986,1215.117,1093.6981L1153.0337,1093.6901L1153.0316,1109.9402L1217.7535,1109.9485Q1225.6705,1109.9493,1230.6705,1108.8391Q1235.5317,1107.8673,1238.4486,1105.5066Q1241.2266,1103.1456,1242.1993,1099.257Q1243.1721,1095.507,1243.1729,1089.9515L1243.1733,1086.0625Q1243.174,1080.0905,1242.2023,1075.9237Q1241.2307,1071.8959,1238.5923,1069.2563Q1235.9536,1066.7563,1231.3704,1065.5057Q1226.8575,1064.4109,1219.7858,1064.3932Q1219.6758,1064.3928,1219.5651,1064.3931L1178.7319,1064.3878Q1178.7155,1064.3878,1178.699,1064.3877Q1175.9465,1064.3809,1174.7041,1063.2764Q1173.4543,1062.165,1173.4548,1058.9705L1173.4553,1055.4984Q1173.4557,1052.5817,1174.8447,1051.4708Q1176.0948,1050.3597,1179.1504,1050.3604L1202.7614,1050.3632L1202.7634,1034.6688 Z M1112.4087,1034.6577Q1112.3086,1034.6575,1112.2079,1034.6572L1075.8191,1034.6526Q1065.8191,1034.6515,1059.2911,1036.1786Q1052.7632,1037.7054,1048.7349,1041.177Q1044.8456,1044.5098,1043.1782,1050.204Q1041.6498,1055.7593,1041.6486,1063.9539L1041.6464,1081.3151Q1041.6445,1096.315,1049.2826,1103.1216Q1056.8727,1109.8855,1074.6134,1109.93Q1074.7251,1109.9303,1074.8372,1109.9303L1099.2817,1109.9333L1099.2837,1094.2389L1074.8392,1094.2358Q1074.7648,1094.2357,1074.6908,1094.2355Q1071.1768,1094.2267,1068.728,1093.8182Q1066.3673,1093.4014,1064.8395,1092.1512Q1063.4508,1091.0398,1062.8955,1088.9564Q1062.3402,1086.8729,1062.3407,1083.4009L1062.3411,1079.9287L1139.7023,1079.9385L1139.7056,1055.2162Q1139.7062,1050.7719,1138.4565,1046.8829Q1137.2069,1043.1328,1134.0128,1040.3546Q1130.9575,1037.7153,1125.5413,1036.1868Q1120.3295,1034.6776,1112.4087,1034.6577 Z M1027.208,1034.6464L972.7635,1034.6395Q962.34686,1034.6382,955.4022,1036.4429Q948.45764,1038.1085,944.2905,1041.9971Q940.1232,1045.7462,938.3171,1051.9963Q936.64954,1058.246,936.64825,1067.2737L936.647,1077.4126Q936.6458,1086.4402,938.45056,1092.6906Q940.11646,1098.802,944.28265,1102.6914Q948.4489,1106.4419,955.393,1108.2483Q962.2339,1109.891,972.44464,1109.9166Q972.5988,1109.917,972.75385,1109.9171L1027.3373,1109.924L1027.3396,1092.4241L973.45044,1092.4174Q973.3834,1092.4174,973.3169,1092.4172Q968.5454,1092.4053,965.3952,1091.5829Q962.33966,1090.888,960.5345,1089.0822Q958.72894,1087.2764,958.03485,1084.2206Q957.3407,1081.3042,957.3414,1076.8599L957.3425,1067.9708Q957.3431,1063.3876,958.03784,1060.3319Q958.7329,1057.2766,960.5387,1055.4711Q962.34454,1053.8049,965.53906,1053.1108Q968.5947,1052.4169,973.4557,1052.4174L1027.2059,1052.4242L1027.208,1034.6464 Z M920.9579,1036.5774L899.8468,1036.5747L899.8374,1109.9081L920.94836,1109.9108L920.9579,1036.5774 Z M727.40906,1034.6088Q727.3089,1034.6085,727.2083,1034.6083L690.81946,1034.6039Q680.8194,1034.6025,674.2915,1036.1294Q667.7634,1037.6564,663.7353,1041.128Q659.84595,1044.4609,658.1785,1050.155Q656.65,1055.7106,656.64886,1063.9048L656.64667,1081.266Q656.64484,1096.2657,664.28284,1103.0725Q671.8732,1109.8365,689.6147,1109.8812Q689.7259,1109.8816,689.8375,1109.8813L714.282,1109.8843L714.28394,1094.1898L689.8395,1094.1869Q689.7651,1094.1868,689.6911,1094.1865Q686.1769,1094.1777,683.72845,1093.7692Q681.36743,1093.3524,679.83984,1092.1022Q678.451,1090.9908,677.8958,1088.9073Q677.34045,1086.8242,677.3409,1083.3519L677.3413,1079.8796L754.70245,1079.8896L754.70575,1055.1672Q754.7063,1050.7229,753.4568,1046.834Q752.20715,1043.0839,749.0131,1040.3055Q745.9579,1037.6663,740.5414,1036.1378Q735.3297,1034.6287,727.40906,1034.6088 Z M605.5839,1015.1488Q605.42554,1015.1484,605.2664,1015.1484L530.2665,1015.1388L530.25433,1109.8608L605.2543,1109.8706Q615.8099,1109.8716,622.8934,1108.0671Q629.83813,1106.4012,634.00525,1102.513Q638.1723,1098.7633,639.9787,1092.5137Q641.64606,1086.4028,641.64716,1077.3751L641.6511,1047.6528Q641.65216,1038.764,639.8475,1032.5139Q638.1816,1026.2635,634.0155,1022.3742Q629.8493,1018.62366,622.7662,1016.81714Q615.92676,1015.17474,605.5839,1015.1488 Z M517.9028,1034.5817L504.43063,1034.5802Q494.84723,1034.5789,488.18045,1036.3837Q481.51352,1038.1882,477.20746,1042.0767Q473.04028,1045.826,471.09512,1051.798Q469.1499,1057.7697,469.14877,1066.2421L469.14325,1109.8533L489.8377,1109.856L489.84326,1066.3835Q489.84384,1061.9392,490.67752,1059.0226Q491.37234,1056.106,493.178,1054.4396Q494.845,1052.7732,497.76178,1052.079Q500.6785,1051.3851,504.984,1051.3855L517.90076,1051.3873L517.9028,1034.5817 Z M420.21805,1034.5696Q420.1024,1034.5693,419.98624,1034.5692L399.43066,1034.5669L399.42883,1049.289L419.98438,1049.2914Q420.02985,1049.2915,420.0752,1049.2916Q426.94785,1049.3088,429.8451,1051.7927Q432.76154,1054.154,432.76056,1061.3763L432.76035,1063.0428L377.06595,1063.0361Q369.2881,1063.0352,364.14905,1064.4233Q359.14896,1065.6725,356.23193,1068.3113Q353.31494,1070.8108,352.06442,1074.5605Q350.9529,1078.1716,350.9523,1082.8939L350.95145,1089.9772Q350.95087,1094.5604,352.2003,1098.3107Q353.44983,1101.922,356.64398,1104.5612Q359.69922,1107.0615,364.97684,1108.4512Q370.18073,1109.8214,378.22043,1109.8417Q378.33438,1109.8419,378.44882,1109.8417L419.14328,1109.8468Q429.14325,1109.8481,435.81006,1108.3212Q442.33804,1106.933,446.36624,1103.4612Q450.25558,1099.9897,451.92297,1094.4343Q453.4514,1088.8788,453.45242,1080.6847L453.45477,1062.3511Q453.45572,1055.129,451.512,1049.851Q449.7071,1044.7118,445.67978,1041.2393Q441.65244,1037.9056,435.26376,1036.2379Q429.09436,1034.5918,420.21805,1034.5696 Z M319.0168,1013.3064L297.9056,1013.30383L297.90292,1034.5538L287.3474,1034.5522L287.34528,1051.3579L297.90085,1051.3593L297.89337,1109.8313L319.00443,1109.8342L319.0119,1051.3619L342.76196,1051.3651L342.764,1034.5597L319.01404,1034.5565L319.0168,1013.3064 Z M277.6252,1034.5513L257.06964,1034.5486L257.06427,1076.7708Q257.0637,1081.6318,256.22995,1084.6873Q255.53508,1087.6038,253.5905,1089.27Q251.78471,1090.9366,248.4513,1091.6307Q245.11786,1092.1858,240.11786,1092.1853L218.4512,1092.1824Q218.37436,1092.1823,218.29785,1092.182Q213.67476,1092.1704,210.39574,1091.4869Q207.20139,1090.9308,205.25713,1089.264Q203.3129,1087.597,202.3411,1084.5414Q201.50813,1081.6249,201.50876,1076.7637L201.51411,1034.5415L180.68079,1034.5388L180.67534,1077.3167Q180.67418,1086.3442,182.47897,1092.5944Q184.14485,1098.7058,188.31102,1102.5951Q192.47719,1106.3458,199.42142,1108.1521Q206.263,1109.795,216.47519,1109.8207Q216.62839,1109.821,216.78232,1109.8212L241.22675,1109.8241Q251.78227,1109.8254,258.86588,1108.021Q265.81052,1106.355,269.97766,1102.4668Q274.14487,1098.7172,275.9512,1092.4675Q277.61856,1086.3567,277.61972,1077.329L277.6252,1034.5513 Z M24.772192,1034.5195Q24.671196,1034.5193,24.56974,1034.519L-11.819173,1034.5145Q-21.81912,1034.5131,-28.347126,1036.0402Q-34.875084,1037.567,-38.9033,1041.039Q-42.792614,1044.3716,-44.459995,1050.0659Q-45.988476,1055.6212,-45.989506,1063.8154L-45.991707,1081.1766Q-45.993618,1096.1766,-38.3556,1102.9832Q-30.765171,1109.7473,-13.02378,1109.7919Q-12.9125595,1109.7921,-12.80091,1109.7922L11.643514,1109.795L11.645501,1094.1006L-12.798923,1094.0975Q-12.873402,1094.0975,-12.947405,1094.0974Q-16.461615,1094.0886,-18.909983,1093.68Q-21.271034,1093.2631,-22.798664,1092.0128Q-24.187422,1090.9017,-24.742697,1088.8182Q-25.297974,1086.7349,-25.297548,1083.2626L-25.29711,1079.7905L52.063957,1079.8002L52.067112,1055.078Q52.067673,1050.6337,50.81818,1046.7445Q49.56867,1042.9945,46.374554,1040.2161Q43.319355,1037.577,37.90287,1036.0486Q32.691753,1034.5394,24.772192,1034.5195 Z M890.4026,1034.6292L865.95807,1034.626L826.923,1092.2596L787.48596,1034.6162L762.7638,1034.613L812.33826,1104.8969Q814.6989,1108.0916,817.75415,1110.0365Q820.7878,1111.9677,826.55975,1111.982Q826.60114,1111.9822,826.64276,1111.982Q832.1983,1111.9828,835.3929,1110.0386Q838.44867,1108.0946,840.8103,1104.9005L890.4026,1034.6292 Z M-104.03886,1015.0582L-133.48332,1015.05444Q-140.56665,1015.05365,-145.70572,1016.5807Q-150.84477,1017.96893,-154.03964,1021.1631Q-157.23445,1024.2183,-158.76288,1029.3568Q-160.29134,1034.4956,-160.29225,1041.7178L-160.29285,1046.4401Q-160.29364,1052.5509,-159.04419,1057.1343Q-157.93364,1061.579,-154.87846,1064.6348Q-151.82329,1067.5521,-146.5457,1069.0806Q-141.4763,1070.4512,-133.70338,1070.4707Q-133.59712,1070.471,-133.49034,1070.471L-88.351456,1070.4768Q-88.31381,1070.4767,-88.27631,1070.4767Q-82.77897,1070.4905,-80.29615,1072.4224Q-77.79639,1074.2281,-77.79694,1078.6727L-77.7976,1083.8114Q-77.79821,1088.6725,-80.298416,1090.3387Q-82.79863,1091.8665,-88.493065,1091.8654L-160.43748,1091.8566L-160.43976,1109.7731L-87.38424,1109.7823Q-79.46755,1109.7834,-73.91183,1108.3953Q-68.495,1107.007,-65.0224,1104.0908Q-61.549812,1101.1744,-60.021435,1096.4524Q-58.493057,1091.8694,-58.492218,1085.2028L-58.491272,1077.7029Q-58.490456,1071.314,-60.017662,1066.7305Q-61.544846,1062.1467,-65.01671,1059.2296Q-68.488556,1056.3126,-74.04393,1054.9231Q-79.37927,1053.6909,-87.14044,1053.6715Q-87.2585,1053.6713,-87.37712,1053.6714L-131.68265,1053.6658Q-131.7148,1053.6656,-131.74683,1053.6655Q-136.83458,1053.6528,-138.90462,1051.7206Q-140.98772,1049.9146,-140.98715,1045.4702L-140.98679,1042.4146Q-140.98605,1036.72,-138.62468,1034.7762Q-136.40225,1032.9707,-131.54114,1032.9712L-104.04114,1032.9749L-104.03886,1015.0582 Z M129.47055,1034.533Q129.3122,1034.5325,129.15305,1034.5323L102.76415,1034.5289Q92.20862,1034.5278,85.26392,1036.3324Q78.31926,1037.9982,74.152115,1041.8866Q69.984985,1045.6359,68.17862,1051.8857Q66.51116,1058.1354,66.51,1067.163L66.50175,1132.3021L87.19619,1132.3047L87.19904,1109.8047L129.14345,1109.81Q139.699,1109.8114,146.64366,1108.0065Q153.58835,1106.3408,157.75552,1102.4523Q161.92265,1098.703,163.72897,1092.4531Q165.39641,1086.3423,165.39755,1077.3145L165.3988,1067.1758Q165.40001,1058.1478,163.59526,1051.8976Q161.92943,1045.6475,157.7632,1041.7582Q153.59706,1038.0078,146.65282,1036.2013Q139.81331,1034.5588,129.47055,1034.533 Z"/>
</g>
</g>
</g>
<g id="layer2" opacity="0.09803922">
<g>
<g style="fill:rgb(28,48,126); fill-opacity:1.0; stroke-linejoin: miter">
<path d="M914.2123,1212.7842Q914.1846,1212.7844,914.1566,1212.7844L907.3511,1212.7932Q903.4621,1212.7981,901.7936,1211.2727Q900.264,1209.8855,900.25977,1206.552L900.2496,1198.4966Q900.2453,1195.1631,901.91,1193.6334Q903.4267,1192.1132,907.2785,1192.099Q907.3017,1192.099,907.3249,1192.0988L914.13043,1192.0902Q918.1581,1192.0851,919.82666,1193.611Q921.3564,1195.1365,921.36066,1198.4697L921.3707,1206.5254Q921.37506,1209.8589,919.7103,1211.3887Q918.195,1212.7698,914.2123,1212.7842 Z M1110.994,1171.5634Q1115.6497,1171.5465,1117.5753,1170.305Q1119.3792,1169.0529,1119.3744,1165.3029L1119.3623,1155.5807L1062.6954,1155.6521L1062.7006,1159.6799Q1062.7056,1163.7075,1063.4031,1166.0679Q1064.1005,1168.428,1065.7688,1169.6763Q1067.2981,1170.9241,1069.9376,1171.3374Q1072.5767,1171.6118,1076.4656,1171.6069L1110.9102,1171.5634Q1110.9523,1171.5636,1110.994,1171.5634 Z M725.9958,1172.0498Q730.6505,1172.033,732.5757,1170.7917Q734.3797,1169.5396,734.37494,1165.7896L734.3627,1156.0674L677.69617,1156.1389L677.7012,1160.1665Q677.70624,1164.1943,678.40375,1166.5547Q679.10126,1168.915,680.76935,1170.1628Q682.2987,1171.4109,684.93823,1171.8242Q687.57733,1172.0986,691.46625,1172.0938L725.91064,1172.0503Q725.9533,1172.05,725.9958,1172.0498 Z M23.358727,1172.9386Q28.013391,1172.9218,29.938654,1171.6805Q31.742615,1170.4283,31.737885,1166.6781L31.725586,1156.956L-24.940895,1157.0276L-24.935776,1161.0552Q-24.930721,1165.0829,-24.233301,1167.4432Q-23.535852,1169.8036,-21.867613,1171.0514Q-20.338263,1172.2994,-17.698864,1172.7128Q-15.059624,1172.9872,-11.170741,1172.982L23.2736,1172.9388Q23.316277,1172.9388,23.358727,1172.9386 Z M604.9475,1189.4254Q609.5846,1189.4086,612.5983,1188.5826Q615.653,1187.8842,617.59515,1186.076Q619.39856,1184.4073,620.22797,1181.3507Q620.91876,1178.4332,620.9133,1174.1276L620.87787,1146.0719Q620.87225,1141.6276,619.8964,1138.712Q619.0594,1135.7965,617.1127,1133.9933Q615.16614,1132.3292,612.1096,1131.6385Q609.0533,1130.9481,604.7477,1130.9532L551.6923,1131.0206L551.7662,1189.4928L604.82153,1189.4257Q604.8847,1189.4257,604.9475,1189.4254 Z M127.130646,1171.1405Q132.38202,1171.1215,135.90932,1170.5741Q139.38087,1170.014,141.46205,1168.3448Q143.54329,1166.6757,144.37276,1163.6188Q145.06334,1160.5626,145.05699,1155.5626L145.04578,1146.6737Q145.03928,1141.5348,144.2021,1138.4803Q143.5038,1135.4257,141.41833,1133.7614Q139.33295,1132.0975,135.85995,1131.5465Q132.38724,1131.1342,126.970566,1131.141L87.52628,1131.191L87.55734,1155.7745Q87.56315,1160.3575,88.26143,1163.4125Q88.959564,1166.3282,90.76742,1168.1315Q92.575096,1169.7958,95.77038,1170.4862Q98.96568,1171.1764,103.8268,1171.1705L126.88226,1171.1412Q127.00693,1171.141,127.130646,1171.1405 Z M433.10156,1147.1428L433.0935,1140.7539Q433.08826,1136.5874,432.25153,1133.9492Q431.41492,1131.3118,429.74634,1129.7859Q428.07782,1128.3994,425.43823,1127.8469Q422.79865,1127.2949,419.1876,1127.2993L380.29883,1127.3483Q380.27344,1127.3483,380.2481,1127.3485Q376.25708,1127.3629,374.05078,1128.8839Q371.8305,1130.4147,371.83557,1134.4423L371.84204,1139.5812Q371.84766,1144.0258,373.9331,1145.6898Q376.01837,1147.215,379.62946,1147.2106L433.10156,1147.1428 Z M1203.1521,1187.4191L1174.5413,1187.4552Q1168.4302,1187.463,1164.4012,1186.496Q1160.3722,1185.5287,1158.0083,1183.3097Q1155.6444,1181.2294,1154.529,1177.7582Q1153.5525,1174.2875,1153.5463,1169.4261L1153.5391,1163.7318Q1153.5327,1158.7316,1154.3612,1154.9808Q1155.0513,1151.3685,1157.2703,1148.8658Q1159.4894,1146.3632,1163.5156,1145.108Q1167.3556,1143.8683,1173.6368,1143.8453Q1173.7141,1143.8451,1173.7917,1143.8448L1216.0138,1143.7915Q1216.044,1143.7915,1216.074,1143.7915Q1219.7771,1143.7778,1221.4291,1142.6738Q1222.9557,1141.6997,1222.9504,1137.533L1222.9474,1135.0327Q1222.9424,1131.1438,1221.2739,1129.7571Q1219.6055,1128.3704,1215.4388,1128.3754L1153.3556,1128.4542L1153.3351,1112.2041L1218.0571,1112.1223Q1225.974,1112.1124,1230.9752,1113.217Q1235.8375,1114.1831,1238.7571,1116.5405Q1241.5378,1118.8982,1242.5151,1122.7859Q1243.4921,1126.5349,1243.4991,1132.0901L1243.504,1135.979Q1243.5115,1141.9514,1242.5444,1146.1191Q1241.5775,1150.1482,1238.9419,1152.7905Q1236.3062,1155.2937,1231.7244,1156.5496Q1227.2128,1157.6494,1220.141,1157.6753Q1220.031,1157.6758,1219.9203,1157.6755L1179.0872,1157.7272Q1179.0707,1157.7274,1179.0542,1157.7274Q1176.3018,1157.7374,1175.0607,1158.8434Q1173.8121,1159.9559,1173.8162,1163.1505L1173.8206,1166.6227Q1173.8242,1169.5397,1175.2146,1170.6488Q1176.466,1171.7584,1179.5215,1171.7545L1203.1323,1171.7247L1203.1521,1187.4191 Z M1112.7977,1187.5331Q1112.6976,1187.5333,1112.5969,1187.5338L1076.208,1187.5796Q1066.208,1187.592,1059.6783,1186.0725Q1053.1486,1184.553,1049.1163,1181.0862Q1045.2234,1177.7578,1043.5494,1172.0654Q1042.0146,1166.512,1042.0043,1158.3171L1041.9823,1140.956Q1041.9634,1125.956,1049.5939,1119.1406Q1057.1761,1112.3682,1074.9169,1112.3035Q1075.0286,1112.303,1075.1406,1112.3029L1099.5851,1112.272L1099.605,1127.9666L1075.1605,1127.9973Q1075.086,1127.9976,1075.0121,1127.9978Q1071.498,1128.0107,1069.0498,1128.4219Q1066.6895,1128.8413,1065.1632,1130.0933Q1063.7758,1131.2063,1063.2228,1133.2903Q1062.6698,1135.3743,1062.6743,1138.8467L1062.6786,1142.3188L1140.0398,1142.2211L1140.071,1166.9435Q1140.0767,1171.3878,1138.8315,1175.2782Q1137.5862,1179.0297,1134.3953,1181.8116Q1131.343,1184.4542,1125.9283,1185.9889Q1120.7184,1187.504,1112.7977,1187.5331 Z M1027.5969,1187.6414L973.15234,1187.7101Q962.7357,1187.7233,955.7891,1185.9264Q948.8426,1184.2687,944.671,1180.3849Q940.4996,1176.6405,938.6863,1170.3922Q937.0117,1164.1447,937.0003,1155.1168L936.9875,1144.9779Q936.9761,1135.9501,938.7737,1129.6976Q940.4326,1123.5846,944.59436,1119.6903Q948.75635,1115.9352,955.69836,1114.1207Q962.53735,1112.4703,972.7481,1112.4331Q972.9022,1112.4325,973.05725,1112.4323L1027.6407,1112.3634L1027.663,1129.8633L973.7738,1129.9313Q973.7068,1129.9313,973.64026,1129.9315Q968.86884,1129.9489,965.7194,1130.7748Q962.66473,1131.4733,960.86163,1133.2811Q959.0581,1135.089,958.3675,1138.1454Q957.6767,1141.0629,957.6824,1145.5072L957.69366,1154.3961Q957.6994,1158.9794,958.39764,1162.034Q959.09607,1165.0887,960.90393,1166.8922Q962.7117,1168.5563,965.9069,1169.247Q968.96344,1169.9374,973.82434,1169.9313L1027.5746,1169.8635L1027.5969,1187.6414 Z M921.34467,1185.8312L900.2336,1185.8578L900.141,1112.5243L921.25195,1112.4976L921.34467,1185.8312 Z M727.7982,1188.0198Q727.69806,1188.02,727.5975,1188.0205L691.20874,1188.0662Q681.2086,1188.0791,674.679,1186.5596Q668.14923,1185.04,664.1172,1181.5732Q660.2241,1178.2446,658.5502,1172.5522Q657.0154,1166.9985,657.00507,1158.8042L656.9831,1141.4429Q656.96423,1126.4431,664.5945,1119.6278Q672.1771,1112.8551,689.9185,1112.7902Q690.0297,1112.7897,690.14136,1112.7899L714.58575,1112.759L714.6055,1128.4534L690.16113,1128.4841Q690.08673,1128.4844,690.01276,1128.4846Q686.4986,1128.4976,684.05054,1128.9089Q681.69,1129.3284,680.1638,1130.5801Q678.77637,1131.6931,678.2235,1133.7771Q677.6705,1135.8611,677.6749,1139.3335L677.67926,1142.8057L755.04034,1142.7078L755.0716,1167.4303Q755.0773,1171.8746,753.83215,1175.765Q752.58673,1179.5166,749.3958,1182.2983Q746.34357,1184.9412,740.9289,1186.4758Q735.7189,1187.9907,727.7982,1188.0198 Z M605.99554,1207.6183Q605.83716,1207.619,605.67804,1207.619L530.67816,1207.714L530.55835,1112.9918L605.5582,1112.8967Q616.1138,1112.8837,623.19934,1114.68Q630.146,1116.3381,634.3175,1120.2216Q638.4889,1123.9667,640.30237,1130.2141Q641.9767,1136.323,641.98804,1145.3511L642.02563,1175.0732Q642.0368,1183.9624,640.23926,1190.2144Q638.5805,1196.4666,634.4188,1200.3605Q630.2569,1204.1158,623.1759,1205.9303Q616.33826,1207.5807,605.99554,1207.6183 Z M518.2923,1188.2852L504.8202,1188.302Q495.23682,1188.3142,488.56802,1186.5171Q481.89902,1184.7202,477.5886,1180.8367Q473.41714,1177.0918,471.46518,1171.1221Q469.5132,1165.1526,469.50247,1156.6802L469.44736,1113.0688L490.14175,1113.0426L490.1968,1156.5151Q490.20242,1160.9592,491.0394,1163.875Q491.73746,1166.791,493.54507,1168.4553Q495.21387,1170.1199,498.13147,1170.8105Q501.04895,1171.5012,505.3545,1171.4958L518.2712,1171.4795L518.2923,1188.2852 Z M420.60785,1188.4084Q420.49222,1188.4089,420.37607,1188.4092L399.82043,1188.4347L399.80188,1173.7125L420.35745,1173.687Q420.40292,1173.6868,420.44827,1173.6865Q427.32086,1173.6616,430.21527,1171.1743Q433.12897,1168.8098,433.1198,1161.5872L433.11774,1159.9207L377.42346,1159.9908Q369.64563,1160.0006,364.50497,1158.6183Q359.5035,1157.3749,356.58347,1154.7394Q353.66367,1152.2433,352.4089,1148.4948Q351.29324,1144.8851,351.28726,1140.1627L351.27835,1133.0792Q351.2726,1128.4962,352.51773,1124.7445Q353.7632,1121.1317,356.9543,1118.4889Q360.00674,1115.9851,365.28275,1114.5894Q370.4851,1113.2133,378.52478,1113.184Q378.63873,1113.1835,378.75317,1113.1835L419.44754,1113.1323Q429.44745,1113.1195,436.11597,1114.6389Q442.64557,1116.0198,446.67767,1119.487Q450.57104,1122.9541,452.2447,1128.5076Q453.77942,1134.0613,453.7898,1142.2554L453.81293,1160.5889Q453.82208,1167.8113,451.88434,1173.0916Q450.08527,1178.2327,446.06195,1181.71Q442.0384,1185.0481,435.6516,1186.7229Q429.48413,1188.3762,420.60785,1188.4084 Z M319.43097,1209.7867L298.31985,1209.8136L298.293,1188.5634L287.7375,1188.5767L287.71625,1171.771L298.27182,1171.7579L298.19785,1113.2856L319.3089,1113.2587L319.38287,1171.7311L343.13278,1171.701L343.15396,1188.5065L319.40405,1188.5365L319.43097,1209.7867 Z M278.01526,1188.5889L257.45975,1188.615L257.40634,1146.3928Q257.40024,1141.5317,256.56302,1138.477Q255.86488,1135.5613,253.91841,1133.8972Q252.11073,1132.2327,248.77657,1131.5425Q245.44249,1130.9912,240.44247,1130.9976L218.7759,1131.0249Q218.69905,1131.0254,218.62254,1131.0256Q213.99947,1131.0425,210.72124,1131.7295Q207.52753,1132.2893,205.58519,1133.9583Q203.64284,1135.6274,202.67451,1138.6843Q201.84488,1141.6018,201.85103,1146.4631L201.90437,1188.6853L181.07109,1188.7117L181.01703,1145.9338Q181.00562,1136.906,182.80328,1130.654Q184.46222,1124.5408,188.62395,1120.6465Q192.78583,1116.8911,199.728,1115.0769Q206.56769,1113.4263,216.77983,1113.3889Q216.93303,1113.3884,217.08696,1113.3882L241.53131,1113.3573Q252.08682,1113.344,259.17245,1115.1404Q266.119,1116.7985,270.29053,1120.6819Q274.46198,1124.4268,276.27545,1130.6743Q277.94977,1136.7832,277.96118,1145.8113L278.01526,1188.5889 Z M25.162895,1188.9081Q25.0619,1188.9086,24.960443,1188.909L-11.428368,1188.955Q-21.428286,1188.9677,-27.958012,1187.4481Q-34.487686,1185.9286,-38.519848,1182.4613Q-42.41293,1179.1329,-44.086784,1173.4406Q-45.62158,1167.8871,-45.631935,1159.6929L-45.653877,1142.3315Q-45.67284,1127.3315,-38.04258,1120.5164Q-30.459862,1113.7434,-12.718565,1113.6787Q-12.607345,1113.6783,-12.495696,1113.6782L11.948663,1113.6475L11.968494,1129.342L-12.475863,1129.3728Q-12.550342,1129.373,-12.624347,1129.3733Q-16.138536,1129.386,-18.586433,1129.7974Q-20.947006,1130.217,-22.47321,1131.469Q-23.860699,1132.5815,-24.413603,1134.6658Q-24.966513,1136.7498,-24.962137,1140.2219L-24.95775,1143.6941L52.403107,1143.5964L52.43436,1168.3187Q52.439976,1172.7631,51.19491,1176.6534Q49.949673,1180.4049,46.758724,1183.1871Q43.706528,1185.8297,38.291798,1187.3644Q33.08241,1188.8793,25.162895,1188.9081 Z M890.7917,1187.8141L866.3471,1187.8448L827.24664,1130.2556L787.8752,1187.944L763.153,1187.9755L812.6476,1117.635Q815.0046,1114.4377,818.0577,1112.4893Q821.0891,1110.5546,826.861,1110.5337Q826.9024,1110.5334,826.94403,1110.5337Q832.4995,1110.5266,835.69635,1112.467Q838.7543,1114.4076,841.11957,1117.5989L890.7917,1187.8141 Z M-103.62567,1208.5159L-133.07005,1208.5532Q-140.15335,1208.5623,-145.29413,1207.041Q-150.43478,1205.6587,-153.63326,1202.468Q-156.83154,1199.4165,-158.3658,1194.2798Q-159.90009,1189.1428,-159.90921,1181.9207L-159.91518,1177.1982Q-159.92291,1171.0874,-158.67871,1166.5024Q-157.5732,1162.0564,-154.52155,1158.9973Q-151.46968,1156.0764,-146.19385,1154.542Q-141.12602,1153.1655,-133.35313,1153.1372Q-133.24689,1153.137,-133.14009,1153.1367L-88.001335,1153.0793Q-87.9637,1153.0796,-87.9262,1153.0793Q-82.42888,1153.0593,-79.948265,1151.1249Q-77.450554,1149.3163,-77.45617,1144.8715L-77.46266,1139.7328Q-77.4688,1134.8717,-79.9709,1133.2081Q-82.47284,1131.6835,-88.16727,1131.691L-160.11148,1131.7819L-160.13412,1113.8654L-87.07881,1113.7728Q-79.16215,1113.7628,-73.60486,1115.1447Q-68.18647,1116.5267,-64.71057,1119.4388Q-61.234665,1122.3512,-59.700928,1127.0717Q-58.16734,1131.653,-58.15892,1138.3195L-58.149445,1145.8195Q-58.14137,1152.2083,-59.663357,1156.7935Q-61.18533,1161.3789,-64.65386,1164.3Q-68.12238,1167.221,-73.67615,1168.617Q-79.010086,1169.855,-86.7712,1169.8833Q-86.88926,1169.8838,-87.00788,1169.8838L-131.3133,1169.94Q-131.34544,1169.9402,-131.37747,1169.9402Q-136.46518,1169.9587,-138.53304,1171.8933Q-140.61406,1173.7017,-140.60846,1178.1462L-140.60461,1181.2019Q-140.59738,1186.8965,-138.23383,1188.8374Q-136.00932,1190.6404,-131.14824,1190.6343L-103.64833,1190.5996L-103.62567,1208.5159 Z M129.86098,1188.7756Q129.70262,1188.7761,129.54347,1188.7766L103.15465,1188.81Q92.599144,1188.8232,85.65241,1187.0266Q78.70587,1185.3689,74.534325,1181.4851Q70.36293,1177.7405,68.54946,1171.4928Q66.874916,1165.245,66.863495,1156.2174L66.78118,1091.0784L87.47557,1091.0522L87.504,1113.5521L129.44829,1113.4989Q140.00383,1113.4855,146.95052,1115.2823Q153.89708,1116.9403,158.06866,1120.8241Q162.24002,1124.5685,164.05347,1130.8165Q165.72786,1136.9254,165.73926,1145.9532L165.75204,1156.0919Q165.7635,1165.1198,163.96585,1171.3722Q162.30711,1177.624,158.14534,1181.5183Q153.98346,1185.2734,147.0413,1187.0876Q140.20369,1188.738,129.86098,1188.7756 Z"/>
</g>
</g>
</g>
</svg>